# xmcd
# 
# Track frame offsets:
#     150
#     8541
#     18566
#     29744
#     43321
#     53834
#     63843
#     72056
#     82935
#     92889
#     101298
#     113683
#     123803
#     132645
#     142339
#     153085
#     161742
#     171209
#     180527
#     190081
#     201249
#     210938
#     222882
#     231903
#     249341
# 
# Disc length: 3455
# 
# Revision: 0
# Processed by: cddbd v1.5.2PL0 Copyright (c) Steve Scherf et al.
# Submitted via: fre:ac v1.0.17
# 
DISCID=560d7d19
DTITLE=Johnny Cash - The Very Best Of - CD2
DYEAR=0
DGENRE=Country
TTITLE0=I'm Free From The Chain Gain Now
TTITLE1=Get Rhythm
TTITLE2=Remember The Alamo
TTITLE3=Don't Tke Guns To Town 
TTITLE4=Bonanza
TTITLE5=Hey Porter
TTITLE6=Guess Things Happen That Way
TTITLE7=Cry, Cry, Cry
TTITLE8=Hank And Joe And Me
TTITLE9=Country Boy
TTITLE10=My Grandfather's Clock
TTITLE11=The Ways Of A Woman In Love
TTITLE12=I Want To Go Home
TTITLE13=The Great Speckled Bird
TTITLE14=Train Of Love
TTITLE15=Accidentally On Purpose
TTITLE16=The Caretaker
TTITLE17=Luther Played The Boggie
TTITLE18=What Do I Care?
TTITLE19=Mean-eyed Cat
TTITLE20=The Man On The Hill
TTITLE21=Home Of The Blues
TTITLE22=Lost On The Desert
TTITLE23=Were You There When They Crucified My Lord
TTITLE24=Bandana (Instrumental)
EXTD=
EXTT0=
EXTT1=
EXTT2=
EXTT3=
EXTT4=
EXTT5=
EXTT6=
EXTT7=
EXTT8=
EXTT9=
EXTT10=
EXTT11=
EXTT12=
EXTT13=
EXTT14=
EXTT15=
EXTT16=
EXTT17=
EXTT18=
EXTT19=
EXTT20=
EXTT21=
EXTT22=
EXTT23=
EXTT24=
PLAYORDER=
